<!-- icon666.com - MILLIONS vector ICONS FREE --><svg version="1.1" id="Capa_1" xmlns="http://www.w3.org/2000/svg" xmlns:xlink="http://www.w3.org/1999/xlink" x="0px" y="0px" viewBox="0 0 413.515 413.515" style="enable-background:new 0 0 413.515 413.515;" xml:space="preserve"><g><polygon style="fill:#5886C5;" points="352.88,150.625 400.883,198.627 412.196,187.314 364.194,139.311 400.884,139.311 400.883,123.314 336.883,123.314 336.884,187.314 352.881,187.313 "></polygon><polygon style="fill:#5886C5;" points="272.885,48.002 224.883,0 213.569,11.314 261.572,59.316 224.882,59.316 224.883,75.314 288.883,75.314 288.882,11.314 272.884,11.314 "></polygon></g><path style="fill:#F9E0D2;" d="M285.91,275.379c4.559-4.544,4.559-11.92,0.016-16.464c-4.765-4.762-20.261-11.433-36.146-11.433 c-16.335,0-32.658,6.222-45.134,18.698l-11.313,11.311c0-61.562,0-28.134-0.002-153.119c0-17.6-14.4-32-32-32 c-9.587,0-18.122,4.362-24,11.096c-5.878-6.734-14.413-11.096-24-11.096c-17.6,0-32,14.4-32,32v90.229 c-17.785,7.089-50.438,22.229-63.806,30.043c-9.968,5.823-16.208,16.319-16.208,27.855v33.057 c0,57.315,46.544,107.959,103.709,107.959c25.838,0,51.443-9.759,71.266-28.663l0.017,0.143 C180.932,380.374,172.892,388.414,285.91,275.379z"></path><g><path style="fill:#F6D2BF;" d="M161.411,123.993v87.111c0,10.577,4.202,20.72,11.681,28.198l9.521,9.52 c6.614,5.874,10.799,14.432,10.799,23.919V125.515c0-1.83-0.156-3.627-0.455-5.376 C189.773,101.522,161.411,105.106,161.411,123.993z"></path><path style="fill:#F6D2BF;" d="M129.411,124.372c0-7.954,3.01-15.138,7.813-20.736c-5.89-6.831-14.399-11.264-23.892-11.264 v111.539c0,8.138,6.178,14.55,14.214,15.831c0.661,0.106,1.218,0.482,1.866,0.63L129.411,124.372L129.411,124.372z"></path><path style="fill:#F6D2BF;" d="M268.352,250.19l-115.43,115.43c-20.238,20.238-47.686,31.607-76.306,31.607H49.416 c16.076,10.262,35.121,16.287,55.611,16.287c54.764,0,71.331-28.612,181.008-138.143 C296.959,264.486,284.313,254.742,268.352,250.19z"></path></g></svg>