<!-- icon666.com - MILLIONS vector ICONS FREE --><svg version="1.1" id="Capa_1" xmlns="http://www.w3.org/2000/svg" xmlns:xlink="http://www.w3.org/1999/xlink" x="0px" y="0px" viewBox="0 0 418.513 418.513" style="enable-background:new 0 0 418.513 418.513;" xml:space="preserve"><path style="fill:#5886C5;" d="M248.322,3.481c35.375,0,67.344,14.402,90.51,37.602V0h15.997v68.282h-68.19l0.001-15.998 l40.715,0.001c-20.27-20.238-48.194-32.804-79.032-32.804c-61.757,0-112,50.243-112,112s50.243,112,112,112s112-50.243,112-112h16 c0,70.692-57.308,128-128,128s-128-57.308-128-128S177.63,3.481,248.322,3.481z"></path><path style="fill:#F9E0D2;" d="M87.446,168.266c19.778,19.778,18.728,38.59,18.712,61.207l118.866-118.866 c12.446-12.446,32.81-12.445,45.255,0s12.446,32.81,0,45.255l-60.995,60.995c16.815-1.717,31.866,9.59,34.62,26.406l20.523,76.933 c2.817,10.646,0.102,22.434-8.226,30.762L218.99,388.17c-40.458,40.458-106.032,40.458-146.49,0 c-19.595-19.595-29.608-45.086-30.207-70.755L42.19,162.496C42.153,141.25,72.233,153.054,87.446,168.266z"></path><g><path style="fill:#F6D2BF;" d="M177.458,203.382l71.246-71.246c13.337-13.337,35.936,4.13,25.06,19.539 c-1.033,1.463-2.202,2.857-3.509,4.164l-61.199,61.199h-25.941C175.987,217.039,172.418,208.422,177.458,203.382z"></path><path style="fill:#F6D2BF;" d="M106.158,229.474l-20.001,20.001c-5.04,5.04-13.657,1.47-13.657-5.657v-71.41 c0-6.654,7.885-10.674,12.918-6.322C107.565,185.23,106.17,210.039,106.158,229.474z"></path><path style="fill:#F6D2BF;" d="M67.861,382.158c41.206,18.71,90.603,13.315,126.932-16.101c5.68-4.595,42.041-40.938,64.689-63.657 l0.161-0.136l4.784,17.934c2.817,10.646,0.102,22.434-8.226,30.762c-6.498,6.498-38.691,39.147-45.364,44.546 c-42.586,34.484-106.388,30.309-143.73-13.286L67.861,382.158z"></path></g></svg>