<!-- icon666.com - MILLIONS vector ICONS FREE --><svg version="1.1" id="Capa_1" xmlns="http://www.w3.org/2000/svg" xmlns:xlink="http://www.w3.org/1999/xlink" x="0px" y="0px" viewBox="0 0 432.287 432.287" style="enable-background:new 0 0 432.287 432.287;" xml:space="preserve"><g><polygon style="fill:#5886C5;" points="215.887,30.624 215.887,96 231.887,96 231.887,30.624 260.858,59.594 272.169,48.282 223.887,0 175.669,48.218 186.982,59.53 "></polygon><polygon style="fill:#5886C5;" points="139.109,181.342 110.138,152.373 159.659,152.373 159.659,136.373 110.138,136.373 139.044,107.466 127.733,96.155 79.515,144.373 127.796,192.655 "></polygon><polygon style="fill:#5886C5;" points="308.805,181.342 320.118,192.655 368.4,144.373 320.182,96.155 308.87,107.466 337.776,136.373 287.846,136.373 287.846,152.373 337.776,152.373 "></polygon></g><path style="fill:#F9E0D2;" d="M312.398,266.222c-27.97,0-40.53,14.045-56.512,30.049v-152.24c0-17.601-14.4-32-32-32 s-32,14.399-32,32v70.399c-10.676-13.104-29.314-15.752-43.152-5.808L79.822,248.51c-9.519,5.536-15.935,15.792-15.935,27.568 v52.624c0,57.216,46.368,103.584,103.584,103.584c27.712,0,52.817-10.944,71.392-28.672l109.616-109.472 C363.529,279.146,333.912,266.222,312.398,266.222z"></path><g><path style="fill:#F6D2BF;" d="M223.854,142.478v87.398c0,10.577,4.202,20.72,11.681,28.198l9.521,9.52 c6.614,5.874,10.799,14.432,10.799,23.919V144c0-1.83-0.156-3.627-0.455-5.376C252.217,120.006,223.854,123.59,223.854,142.478z"></path><path style="fill:#F6D2BF;" d="M330.795,268.962l-115.43,115.43C195.127,404.63,167.679,416,139.058,416h-27.199 c16.076,10.262,35.121,16.287,55.611,16.287c54.764,0,71.331-28.612,181.008-138.143 C359.402,283.258,346.757,273.514,330.795,268.962z"></path></g></svg>